<svg xmlns="http://www.w3.org/2000/svg" width="64" height="64" viewBox="0 0 640 640" shape-rendering="geometricPrecision" text-rendering="geometricPrecision" image-rendering="optimizeQuality" fill-rule="evenodd" clip-rule="evenodd"><path d="M67.713-.012h504.573c37.253 0 67.726 30.473 67.726 67.725v504.573c0 37.253-30.473 67.726-67.726 67.726H67.713c-37.252 0-67.725-30.473-67.725-67.726V67.713c0-37.252 30.473-67.725 67.725-67.725zm41.398 352.174c-19.145-16.56-21.236-45.496-4.677-64.642 16.56-19.123 45.509-21.213 64.631-4.654l103.218 89.493 211.656-209.47c17.953-17.836 46.985-17.765 64.82.188 17.846 17.953 17.764 46.973-.177 64.82L307.197 466.742c-16.772 17.315-44.387 18.673-62.848 2.717L109.111 352.162z"/></svg>