<?xml version="1.0" ?><!DOCTYPE svg  PUBLIC '-//W3C//DTD SVG 1.1//EN'  'http://www.w3.org/Graphics/SVG/1.1/DTD/svg11.dtd'><svg height="512px" style="enable-background:new 0 0 512 512;" version="1.1" viewBox="0 0 512 512" width="512px" xml:space="preserve" xmlns="http://www.w3.org/2000/svg" xmlns:xlink="http://www.w3.org/1999/xlink"><g id="_x31_04_x2C__Building_x2C__Canada_x2C__City_x2C__Famous_City_x2C__Toronto"><g><path d="M140.503,404.641l2.047,32.879l0.272,4.48h131.97c-0.019-1-0.032-0.74-0.054-0.985c-0.038-0.435-0.081-0.992-0.127-1.425    c-0.062-0.575-0.132-1.21-0.209-1.78c-0.058-0.429-0.116-0.888-0.183-1.314c-0.089-0.576-0.189-1.166-0.294-1.738    c-0.075-0.413-0.148-0.834-0.231-1.245c-0.12-0.595-0.256-1.188-0.393-1.778c-0.089-0.382-0.172-0.768-0.267-1.147    c-0.165-0.656-0.35-1.309-0.534-1.958c-0.088-0.307-0.166-0.616-0.257-0.921c-0.286-0.947-0.591-1.889-0.92-2.822    c-0.053-0.148-0.113-0.295-0.167-0.443c-0.282-0.784-0.576-1.564-0.889-2.337c-0.134-0.33-0.28-0.654-0.42-0.981    c-0.249-0.586-0.499-1.172-0.765-1.751c-0.169-0.366-0.348-0.727-0.523-1.089c-0.258-0.533-0.518-1.065-0.79-1.592    c-0.193-0.374-0.395-0.743-0.596-1.113c-0.275-0.507-0.555-1.012-0.844-1.512c-0.214-0.371-0.434-0.738-0.655-1.105    c-0.298-0.492-0.603-0.98-0.914-1.466c-0.23-0.359-0.464-0.718-0.702-1.073c-0.325-0.485-0.66-0.965-0.999-1.442    c-0.243-0.342-0.484-0.685-0.734-1.022c-0.361-0.489-0.736-0.971-1.113-1.451c-0.245-0.313-0.486-0.629-0.737-0.938    c-0.425-0.521-0.866-1.033-1.309-1.544c-0.221-0.255-0.433-0.515-0.658-0.766c-0.675-0.756-1.367-1.251-2.081-1.979    C244.092,388.686,227.604,382,210,382h-20C170.833,382,152.9,390.069,140.503,404.641z"/><path d="M115,83.5c0-6.617-5.383-11.5-12-11.5h-2V35.5c0-2.761-2.239-5-5-5s-5,2.239-5,5V72h-4c-6.617,0-12,4.883-12,11.5V102h40    V83.5z"/><path d="M65,152h5h50h5c11.028,0,20-8.972,20-20s-8.972-20-20-20h-5H70h-5c-11.028,0-20,8.972-20,20S53.972,152,65,152z"/><path d="M245,121.5c16.542,0,30-13.458,30-30s-13.458-30-30-30s-30,13.458-30,30S228.458,121.5,245,121.5z"/><path d="M481,472h-16v-80h-30v80h-10v-85.5V182h-49v-36.5c0-2.761-2.238-5-5-5s-5,2.239-5,5V182h-51v30h65c2.762,0,5,1.739,5,4.5    V472h-10v-90h-55c-2.762,0-5-2.238-5-5s2.238-5,5-5h55v-30h-55c-2.762,0-5-2.238-5-5s2.238-5,5-5h55v-30h-55c-2.762,0-5-2.238-5-5    s2.238-5,5-5h55v-30h-55c-2.762,0-5-2.238-5-5s2.238-5,5-5h55v-30h-65h-45v30h25c2.762,0,5,2.238,5,5s-2.238,5-5,5h-25v30h25    c2.762,0,5,2.238,5,5s-2.238,5-5,5h-25v30h25c2.762,0,5,2.238,5,5s-2.238,5-5,5h-25v30h25c2.762,0,5,2.238,5,5s-2.238,5-5,5h-25    v13.528c0.193,0.208,0.372,0.426,0.563,0.636c0.378,0.416,0.749,0.836,1.116,1.26c0.423,0.487,0.84,0.979,1.249,1.475    c0.354,0.43,0.702,0.862,1.046,1.298c0.399,0.507,0.791,1.018,1.176,1.532c0.33,0.441,0.655,0.886,0.976,1.334    c0.374,0.523,0.738,1.052,1.098,1.584c0.307,0.454,0.61,0.909,0.906,1.368c0.349,0.542,0.687,1.088,1.021,1.637    c0.282,0.464,0.563,0.929,0.835,1.399c0.322,0.556,0.632,1.118,0.938,1.682c0.26,0.477,0.519,0.952,0.767,1.433    c0.295,0.571,0.577,1.148,0.856,1.727c0.235,0.485,0.471,0.97,0.695,1.459c0.269,0.587,0.521,1.179,0.774,1.772    c0.21,0.492,0.423,0.984,0.622,1.481c0.241,0.602,0.466,1.208,0.69,1.815c0.186,0.5,0.375,0.998,0.55,1.503    c0.213,0.615,0.408,1.237,0.605,1.859c0.16,0.504,0.326,1.007,0.476,1.515c0.186,0.633,0.352,1.272,0.521,1.91    c0.134,0.507,0.275,1.01,0.399,1.52c0.158,0.65,0.294,1.308,0.435,1.963c0.108,0.505,0.225,1.007,0.322,1.514    c0.13,0.675,0.236,1.354,0.348,2.034c0.082,0.496,0.174,0.989,0.245,1.488c0.103,0.712,0.18,1.431,0.262,2.147    c0.054,0.471,0.12,0.938,0.165,1.411c0.076,0.803,0.124,1.61,0.175,2.417c0.025,0.393,0.063,0.782,0.082,1.175    c0.058,1.204,0.088,2.411,0.088,3.624V472h-10v-20H143.447l1.25,20h-10.02l-2.427-35.881L130,403.042c0-0.001,0-0.001,0-0.002    L115.303,162H74.697L55.322,472H31c-2.761,0-5,2.238-5,5s2.239,5,5,5h450c2.762,0,5-2.238,5-5S483.762,472,481,472z"/><path d="M361,91h40c2.762,0,5-2.239,5-5s-2.238-5-5-5h-40c-2.762,0-5,2.239-5,5S358.238,91,361,91z"/><path d="M371,60.5c1.319,0,2.6-0.53,3.53-1.46c0.939-0.93,1.47-2.22,1.47-3.54c0-1.32-0.53-2.61-1.47-3.54    c-0.931-0.93-2.211-1.46-3.53-1.46c-1.311,0-2.601,0.53-3.54,1.46c-0.93,0.93-1.46,2.22-1.46,3.54c0,1.32,0.53,2.61,1.46,3.54    C368.399,59.97,369.689,60.5,371,60.5z"/><path d="M401,61h50c2.762,0,5-2.239,5-5s-2.238-5-5-5h-50c-2.762,0-5,2.239-5,5S398.238,61,401,61z"/></g></g><g id="Layer_1"/></svg>