<?xml version="1.0" ?><svg enable-background="new 0 0 128 128" id="icons" version="1.1" viewBox="0 0 128 128" xml:space="preserve" xmlns="http://www.w3.org/2000/svg" xmlns:xlink="http://www.w3.org/1999/xlink"><g id="write"><path d="   M23.9,106.2c6.2,1.9,11.8,2.3,17.8,0" fill="none" stroke="#3F51B5" stroke-linecap="round" stroke-linejoin="round" stroke-miterlimit="10" stroke-width="2"/><g id="XMLID_9_"><g><path d="M88.7,22.4l14,14l-2.1,2.1l-11-11l-3.4,3.4c-0.8,0.8-0.8,2.1,0,2.8l1.3,1.3L75.6,46.9L50.3,72.2l-0.4-0.4     c-0.4-0.4-1-0.4-1.4,0L37.5,82.8l-4.6-4.6L88.7,22.4z" fill="#E0F7FA"/><path d="M105.6,39.3L49.8,95.1l-4.6-4.6l10.9-10.9c0.4-0.4,0.4-1,0-1.4l-0.4-0.4l25.3-25.3L93,40.5l1.7,1.7     c0.6,0.6,1.6,0.6,2.2,0l3.7-3.7l2.1-2.1L105.6,39.3z" fill="#E0F7FA"/><path d="M96.9,42.2c-0.6,0.6-1.6,0.6-2.2,0L93,40.5L87.5,35l-1.3-1.3c-0.8-0.8-0.8-2,0-2.8l3.4-3.4l11,11     L96.9,42.2z" fill="#7986CB"/><polygon fill="#FDD835" points="22.6,102.3 22.6,102.3 27.1,94 34,100.9 25.7,105.4 25.7,105.4    "/><polygon fill="#C0CA33" points="49.8,95.1 34,100.9 27.1,94 32.9,78.2 37.5,82.8 45.2,90.5    "/><path d="M56.2,78.1c0.4,0.4,0.4,1,0,1.4L45.2,90.5l-7.7-7.7l10.9-10.9c0.4-0.4,1-0.4,1.4,0l0.4,0.4l5.5,5.5     L56.2,78.1z" fill="#9E9D24"/><polygon fill="#263238" points="81.1,52.4 55.8,77.7 50.3,72.2 75.6,46.9    "/><path d="M105.6,39.3l-2.9-2.9l-14-14c4.6-1.1,9.6,0.1,13.2,3.7S106.7,34.7,105.6,39.3z" fill="#3F51B5"/><polygon fill="#E0F7FA" points="93,40.5 81.1,52.4 75.6,46.9 87.5,35    "/></g><g><line fill="none" stroke="#80DEEA" stroke-linejoin="round" stroke-miterlimit="10" stroke-width="2" x1="88.7" x2="32.9" y1="22.4" y2="78.2"/><line fill="none" stroke="#80DEEA" stroke-linejoin="round" stroke-miterlimit="10" stroke-width="2" x1="49.8" x2="105.6" y1="95.1" y2="39.3"/><line fill="none" stroke="#FFFFFF" stroke-linejoin="round" stroke-miterlimit="10" stroke-width="2" x1="87.5" x2="75.6" y1="35" y2="46.9"/><line fill="none" stroke="#FFFFFF" stroke-linejoin="round" stroke-miterlimit="10" stroke-width="2" x1="81.1" x2="93" y1="52.4" y2="40.5"/><line fill="none" stroke="#455A64" stroke-linejoin="round" stroke-miterlimit="10" stroke-width="2" x1="75.6" x2="50.3" y1="46.9" y2="72.2"/><line fill="none" stroke="#455A64" stroke-linejoin="round" stroke-miterlimit="10" stroke-width="2" x1="55.8" x2="81.1" y1="77.7" y2="52.4"/><path d="M37.5,82.8l10.9-10.9     c0.4-0.4,1-0.4,1.4,0l0.4,0.4l5.5,5.5l0.4,0.4c0.4,0.4,0.4,1,0,1.4L45.2,90.5" fill="none" stroke="#827717" stroke-linejoin="round" stroke-miterlimit="10" stroke-width="2"/><path d="M100.5,38.5l-3.7,3.7     c-0.6,0.6-1.6,0.6-2.2,0L93,40.5L87.5,35l-1.3-1.3c-0.8-0.8-0.8-2,0-2.8l3.4-3.4" fill="none" stroke="#5C6BC0" stroke-linejoin="round" stroke-miterlimit="10" stroke-width="2"/><path d="M25.7,105.4L25.7,105.4     c-0.9,0.8-2.2,0.8-3.1,0c-0.8-0.8-0.8-2.2,0-3.1v0" fill="none" stroke="#3F51B5" stroke-linejoin="round" stroke-miterlimit="10" stroke-width="2"/><polyline fill="none" points="27.1,94      22.6,102.3 22.6,102.3 25.7,105.4 25.7,105.4 34,100.9    " stroke="#FBC02D" stroke-linejoin="round" stroke-miterlimit="10" stroke-width="2"/><polygon fill="none" points="34,100.9      49.8,95.1 45.2,90.5 37.5,82.8 32.9,78.2 27.1,94    " stroke="#9E9D24" stroke-linejoin="round" stroke-miterlimit="10" stroke-width="2"/><path d="M105.6,39.3     c1.1-4.6-0.1-9.6-3.7-13.2s-8.6-4.8-13.2-3.7l14,14L105.6,39.3z" fill="none" stroke="#303F9F" stroke-linejoin="round" stroke-miterlimit="10" stroke-width="2"/></g></g><g><path d="    M22.6,19.9c-3-0.3-5.6,2.9-5.5,5.9c0.2,4.2,4.7,7.7,8.8,6.8c4.1-0.9,6.8-5.8,5.5-9.8c-1.4-4-6.4-6.3-10.3-4.7    c-3.9,1.6-6,6.5-4.5,10.5" fill="none" stroke="#5C6BC0" stroke-linecap="round" stroke-linejoin="round" stroke-miterlimit="10" stroke-width="2"/><path d="    M107.6,75.3c-1.5,1.2-1.2,3.8,0.3,5c1.6,1.1,4.1,0.7,5-1c1-1.7,0-4.2-1.8-4.7c-1.9-0.5-4,1.3-3.7,3.2" fill="none" stroke="#5C6BC0" stroke-linecap="round" stroke-linejoin="round" stroke-miterlimit="10" stroke-width="2"/><path d="    M74.6,102.5c-3.5,1.9-5.1,6.8-3.2,10.3c1.8,3.6,6.6,5.2,10.3,3.6s5.6-6.2,4.3-10s-5.6-6.2-9.5-5.4c-3.9,0.8-6.9,4.7-6.8,8.7" fill="none" stroke="#5C6BC0" stroke-linecap="round" stroke-linejoin="round" stroke-miterlimit="10" stroke-width="2"/><path d="    M17.2,57.8c0.5,4.2,1.1,8.3,1.6,12.5" fill="none" stroke="#3F51B5" stroke-linecap="round" stroke-linejoin="round" stroke-miterlimit="10" stroke-width="2"/><path d="    M10.2,64.4c5.2-0.2,10.3-0.3,15.5-0.5" fill="none" stroke="#3F51B5" stroke-linecap="round" stroke-linejoin="round" stroke-miterlimit="10" stroke-width="2"/><path d="    M75.6,9.1c1.8,2.2,3.6,4.4,5.5,6.5" fill="none" stroke="#7986CB" stroke-linecap="round" stroke-linejoin="round" stroke-miterlimit="10" stroke-width="2"/><path d="    M81,9.2c-3.8,2.1-6.8,5.5-8.7,9.4" fill="none" stroke="#7986CB" stroke-linecap="round" stroke-linejoin="round" stroke-miterlimit="10" stroke-width="2"/><path d="    M103.7,95.8c-0.8,3-1.7,6-2.5,9" fill="none" stroke="#3F51B5" stroke-linecap="round" stroke-linejoin="round" stroke-miterlimit="10" stroke-width="2"/><path d="    M98.2,99.5c4.2,1,8.3,2,12.5,3" fill="none" stroke="#3F51B5" stroke-linecap="round" stroke-linejoin="round" stroke-miterlimit="10" stroke-width="2"/></g></g></svg>